<svg width="20" height="20" viewBox="0 0 20 20" fill="none" xmlns="http://www.w3.org/2000/svg">
<path d="M3.75697 2.00811C3.67156 2.00811 3.58754 2.01283 3.50433 2.02131C3.33848 2.03822 3.17745 2.07181 3.02281 2.11991C2.24585 2.36158 1.63154 2.97588 1.38987 3.75284C1.34177 3.90748 1.30818 4.06851 1.29128 4.23436V4.23524C1.28286 4.31818 1.27808 4.40189 1.27808 4.48701V5.38842V15.7547C1.27808 17.1158 2.39593 18.2336 3.75697 18.2336H15.9261C17.2871 18.2336 18.405 17.1158 18.405 15.7547V5.38842V4.48701C18.405 4.40164 18.4004 4.3176 18.3918 4.23436C18.3749 4.06851 18.3413 3.90748 18.2932 3.75284C18.0515 2.97588 17.4372 2.36158 16.6603 2.11991C16.5056 2.07181 16.3446 2.03822 16.1787 2.02131H16.1779C16.0949 2.01279 16.0112 2.00811 15.9261 2.00811H3.75697ZM3.75697 3.36023C4.13016 3.36023 4.43303 3.66311 4.43303 4.0363C4.43303 4.40948 4.13016 4.71236 3.75697 4.71236C3.38379 4.71236 3.08091 4.40948 3.08091 4.0363C3.08091 3.66311 3.38379 3.36023 3.75697 3.36023ZM6.01051 3.36023C6.3837 3.36023 6.68658 3.66311 6.68658 4.0363C6.68658 4.40948 6.3837 4.71236 6.01051 4.71236C5.63733 4.71236 5.33445 4.40948 5.33445 4.0363C5.33445 3.66311 5.63733 3.36023 6.01051 3.36023ZM8.71476 3.36023H15.9261C16.2993 3.36023 16.6022 3.66311 16.6022 4.0363C16.6022 4.40948 16.2993 4.71236 15.9261 4.71236H8.71476C8.34158 4.71236 8.0387 4.40948 8.0387 4.0363C8.0387 3.66311 8.34158 3.36023 8.71476 3.36023ZM2.6302 6.06449H17.0529V15.7547C17.0529 16.3849 16.5563 16.8815 15.9261 16.8815H3.75697C3.12678 16.8815 2.6302 16.3849 2.6302 15.7547V6.06449ZM15.0273 7.85852C14.7805 7.85938 14.5537 7.99469 14.4358 8.21151L12.9155 10.914L11.5088 9.03898C11.3742 8.86005 11.1597 8.75937 10.936 8.77012C10.7124 8.78087 10.5086 8.90166 10.3917 9.09268L8.41546 12.326L7.21475 10.8251C7.07869 10.6551 6.86909 10.561 6.65165 10.5724C6.43421 10.5837 6.23554 10.6991 6.11791 10.8823L4.08972 14.0373C3.95155 14.2405 3.93453 14.5027 4.04528 14.7221C4.15603 14.9415 4.3771 15.0835 4.62268 15.093C4.86826 15.1026 5.09966 14.9781 5.22706 14.7679L6.74644 12.4052L7.96124 13.9237C8.09902 14.0957 8.31199 14.1898 8.53193 14.1757C8.75186 14.1617 8.95116 14.0414 9.066 13.8533L11.0255 10.6473L12.456 12.5549C12.5931 12.7373 12.813 12.8383 13.0407 12.8234C13.2684 12.8085 13.4733 12.6797 13.5854 12.4809L15.6136 8.87525C15.7357 8.66579 15.7364 8.40695 15.6153 8.1969C15.4941 7.98684 15.2698 7.85773 15.0273 7.85852Z" fill="#757575"/>
</svg>
