<svg width="18" height="17" viewBox="0 0 18 17" fill="none" xmlns="http://www.w3.org/2000/svg">
<path d="M0.309204 0.549545V4.81573H1.02024V16.1922H16.6629V4.81573H17.374V0.549545H0.309204ZM1.73127 1.97161H15.9519V3.39367H1.73127V1.97161ZM2.4423 4.81573H15.2409V14.7702H2.4423V4.81573ZM6.57517 6.23779C6.18354 6.2739 5.89469 6.62386 5.93079 7.01549C5.9669 7.40711 6.31686 7.69596 6.70848 7.65986H10.9747C11.2302 7.66263 11.4691 7.52932 11.5996 7.30712C11.7274 7.08492 11.7274 6.81273 11.5996 6.59053C11.4691 6.36834 11.2302 6.23502 10.9747 6.23779H6.70848C6.68626 6.23779 6.66405 6.23779 6.64183 6.23779C6.61961 6.23779 6.59739 6.23779 6.57517 6.23779Z" fill="#757575"/>
</svg>
