<svg width="16" height="17" viewBox="0 0 16 17" fill="none" xmlns="http://www.w3.org/2000/svg">
<path d="M8.11669 14.975C11.5502 14.975 14.3334 12.1918 14.3334 8.75829C14.3334 8.47046 13.9019 8.42259 13.7533 8.66939C13.4364 9.19429 13.0043 9.64019 12.4895 9.97332C11.9748 10.3064 11.3909 10.5181 10.7823 10.5921C10.1736 10.6662 9.55612 10.6008 8.97649 10.4009C8.39685 10.201 7.87032 9.87178 7.43676 9.43822C7.00321 9.00466 6.674 8.47813 6.47408 7.8985C6.27415 7.31887 6.20875 6.70134 6.28283 6.09269C6.35692 5.48404 6.56854 4.90023 6.90166 4.38548C7.23479 3.87073 7.68069 3.43854 8.20559 3.12164C8.45239 2.97244 8.40452 2.54163 8.11669 2.54163C4.68323 2.54163 1.90002 5.32483 1.90002 8.75829C1.90002 12.1918 4.68323 14.975 8.11669 14.975Z" fill="black"/>
</svg>
