<svg width="20" height="20" viewBox="0 0 20 20" fill="none" xmlns="http://www.w3.org/2000/svg">
<path d="M17.6124 7.24994V3.72198C17.6124 2.62629 17.1151 2.18336 15.8795 2.18336H12.7401C11.5045 2.18336 11.0072 2.62629 11.0072 3.72198V7.24217C11.0072 8.34563 11.5045 8.78079 12.7401 8.78079H15.8795C17.1151 8.78857 17.6124 8.34563 17.6124 7.24994Z" fill="black"/>
<path d="M17.6124 15.9921V12.8527C17.6124 11.6172 17.1151 11.1198 15.8795 11.1198H12.7401C11.5045 11.1198 11.0072 11.6172 11.0072 12.8527V15.9921C11.0072 17.2277 11.5045 17.725 12.7401 17.725H15.8795C17.1151 17.725 17.6124 17.2277 17.6124 15.9921Z" fill="black"/>
<path d="M8.67601 7.24994V3.72198C8.67601 2.62629 8.17868 2.18336 6.94311 2.18336H3.8037C2.56813 2.18336 2.0708 2.62629 2.0708 3.72198V7.24217C2.0708 8.34563 2.56813 8.78079 3.8037 8.78079H6.94311C8.17868 8.78857 8.67601 8.34563 8.67601 7.24994Z" fill="black"/>
<path d="M8.67601 15.9921V12.8527C8.67601 11.6172 8.17868 11.1198 6.94311 11.1198H3.8037C2.56813 11.1198 2.0708 11.6172 2.0708 12.8527V15.9921C2.0708 17.2277 2.56813 17.725 3.8037 17.725H6.94311C8.17868 17.725 8.67601 17.2277 8.67601 15.9921Z" fill="black"/>
</svg>
