<svg width="20" height="20" viewBox="0 0 20 20" fill="none" xmlns="http://www.w3.org/2000/svg">
<g clip-path="url(#clip0_6_2665)">
<path d="M3.92105 1.75516C2.48961 1.75516 1.31393 2.93084 1.31393 4.36227V15.1648C1.1887 16.8968 2.01977 18.748 3.82291 18.8144C3.85545 18.8185 3.88824 18.8203 3.92105 18.8199H15.7716C16.5593 18.8199 17.2428 18.3745 17.6871 17.7635C18.1314 17.1526 18.3787 16.3615 18.3787 15.5018C18.3787 14.642 18.1314 13.8509 17.6871 13.24C17.2428 12.6291 16.5593 12.1836 15.7716 12.1836H15.5346V4.36227C15.5346 2.93084 14.3589 1.75516 12.9274 1.75516H3.92105ZM3.92105 3.17722H12.9274C13.5902 3.17722 14.1125 3.69948 14.1125 4.36227V12.1836H3.92105C3.88979 12.1834 3.85855 12.1853 3.82754 12.1892C3.41297 12.2037 3.04881 12.3106 2.73599 12.491V4.36227C2.73599 3.69948 3.25826 3.17722 3.92105 3.17722ZM5.34311 4.59928C5.08668 4.59566 4.84817 4.73038 4.7189 4.95186C4.58963 5.17335 4.58963 5.44728 4.7189 5.66876C4.84817 5.89025 5.08668 6.02497 5.34311 6.02135H6.29115C6.54757 6.02497 6.78609 5.89025 6.91536 5.66876C7.04462 5.44728 7.04462 5.17335 6.91536 4.95186C6.78609 4.73038 6.54757 4.59566 6.29115 4.59928H5.34311ZM8.66125 4.59928C8.40483 4.59566 8.16632 4.73038 8.03705 4.95186C7.90778 5.17335 7.90778 5.44728 8.03705 5.66876C8.16632 5.89025 8.40483 6.02497 8.66125 6.02135H11.5054C11.7618 6.02497 12.0003 5.89025 12.1296 5.66876C12.2589 5.44728 12.2589 5.17335 12.1296 4.95186C12.0003 4.73038 11.7618 4.59566 11.5054 4.59928H8.66125ZM5.34311 6.96939C5.08668 6.96576 4.84817 7.10048 4.7189 7.32197C4.58963 7.54345 4.58963 7.81738 4.7189 8.03887C4.84817 8.26035 5.08668 8.39508 5.34311 8.39145H8.18723C8.44366 8.39508 8.68217 8.26035 8.81144 8.03887C8.94071 7.81738 8.94071 7.54345 8.81144 7.32197C8.68217 7.10048 8.44366 6.96576 8.18723 6.96939H5.34311ZM10.5573 6.96939C10.3009 6.96576 10.0624 7.10048 9.93313 7.32197C9.80386 7.54345 9.80386 7.81738 9.93313 8.03887C10.0624 8.26035 10.3009 8.39508 10.5573 8.39145H11.5054C11.7618 8.39508 12.0003 8.26035 12.1296 8.03887C12.2589 7.81738 12.2589 7.54345 12.1296 7.32197C12.0003 7.10048 11.7618 6.96576 11.5054 6.96939H10.5573ZM5.34311 9.33949C5.08668 9.33586 4.84817 9.47059 4.7189 9.69207C4.58963 9.91356 4.58963 10.1875 4.7189 10.409C4.84817 10.6305 5.08668 10.7652 5.34311 10.7616H8.18723C8.44366 10.7652 8.68217 10.6305 8.81144 10.409C8.94071 10.1875 8.94071 9.91356 8.81144 9.69207C8.68217 9.47059 8.44366 9.33586 8.18723 9.33949H5.34311ZM3.92105 13.6057C5.47149 13.6057 5.47149 17.3978 3.92105 17.3978C2.3706 17.3978 2.3706 13.6057 3.92105 13.6057ZM6.1208 13.6057H15.7716C16.031 13.6057 16.2953 13.7434 16.5372 14.076C16.7792 14.4086 16.9566 14.9214 16.9566 15.5018C16.9566 16.0821 16.7792 16.5949 16.5372 16.9275C16.2953 17.2602 16.031 17.3978 15.7716 17.3978H6.1208C6.69046 16.2776 6.69046 14.7259 6.1208 13.6057Z" fill="#757575"/>
</g>
<defs>
<clipPath id="clip0_6_2665">
<rect width="18.65" height="18.65" fill="white" transform="translate(0.516602 0.96254)"/>
</clipPath>
</defs>
</svg>
