<svg width="24" height="24" viewBox="0 0 24 24" fill="none" xmlns="http://www.w3.org/2000/svg">
<path fill-rule="evenodd" clip-rule="evenodd" d="M5.32217 2.50524C4.48836 3.08826 3.73437 3.77758 3.07985 4.55355C5.75455 4.30523 9.15266 4.71071 13.0978 6.68331C17.3108 8.78971 20.7032 8.86094 23.0642 8.40552C22.8499 7.75691 22.5802 7.13354 22.2608 6.54093C19.5581 6.82599 16.0933 6.44867 12.0553 4.42975C9.49116 3.14768 7.2309 2.61955 5.32217 2.50524ZM20.682 4.29376C18.5477 1.9091 15.446 0.408356 11.9938 0.408356C10.98 0.408356 9.99628 0.537803 9.05854 0.781053C10.3286 1.1276 11.6778 1.63459 13.0978 2.34461C16.0542 3.82278 18.6066 4.29872 20.682 4.29376ZM23.5689 10.6822C20.7167 11.2455 16.778 11.1298 12.0553 8.76844C7.64015 6.56086 4.12606 6.58866 1.75603 7.11535C1.6337 7.14251 1.51425 7.17107 1.39768 7.20079C1.08738 7.87563 0.839696 8.58526 0.661977 9.32217C0.85179 9.27147 1.04793 9.22327 1.2503 9.17828C4.12556 8.53934 8.18805 8.56708 13.0978 11.022C17.5131 13.2296 21.0271 13.2018 23.3972 12.6751C23.4784 12.6571 23.5584 12.6384 23.6371 12.6192C23.6457 12.4354 23.65 12.2505 23.65 12.0646C23.65 11.5969 23.6225 11.1356 23.5689 10.6822ZM23.2565 15.0791C20.4319 15.5729 16.6079 15.3834 12.0553 13.1071C7.64015 10.8996 4.12606 10.9274 1.75603 11.454C1.22996 11.5709 0.756706 11.7133 0.339232 11.8636C0.338094 11.9304 0.337524 11.9975 0.337524 12.0646C0.337524 18.5022 5.5562 23.7209 11.9938 23.7209C17.3889 23.7209 21.928 20.0555 23.2565 15.0791Z" fill="#EFD900"/>
</svg>
