<svg width="93" height="20" viewBox="0 0 93 20" fill="none" xmlns="http://www.w3.org/2000/svg">
<path fill-rule="evenodd" clip-rule="evenodd" d="M10.5752 2.76165V5.41922H3.7193V9.62899H8.97317V12.2395H3.7193V19.1774H0.420898V2.76165H10.5752ZM14.5829 4.59702C14.0018 4.59702 13.5188 4.41279 13.134 4.04434C12.7492 3.67588 12.5568 3.21728 12.5568 2.66852C12.5568 2.11976 12.7492 1.66116 13.134 1.2927C13.5188 0.924245 14.0018 0.740021 14.5829 0.740021C15.1641 0.740021 15.647 0.924245 16.0319 1.2927C16.4167 1.66116 16.6091 2.11976 16.6091 2.66852C16.6091 3.21728 16.4167 3.67588 16.0319 4.04434C15.647 4.41279 15.1641 4.59702 14.5829 4.59702ZM16.2073 6.14925V19.1784H12.9089V6.14925H16.2073ZM26.6924 5.96105C28.2473 5.96105 29.5038 6.45101 30.4619 7.43094C31.4201 8.41088 31.8991 9.77884 31.8991 11.5349V19.1783H28.6007V11.9817C28.6007 10.9469 28.3416 10.1512 27.8232 9.59462C27.3049 9.03802 26.5981 8.75973 25.7028 8.75973C24.7918 8.75973 24.0733 9.03802 23.5471 9.59462C23.0209 10.1512 22.7578 10.9469 22.7578 11.9817V19.1783H19.4594V6.1492H22.7578V7.77196C23.1976 7.20752 23.7591 6.76459 24.4424 6.44317C25.1256 6.12176 25.8756 5.96105 26.6924 5.96105ZM34.1815 12.616C34.1815 11.2989 34.4446 10.1309 34.9708 9.11173C35.497 8.0926 36.2116 7.30867 37.1147 6.75991C38.0179 6.21114 39.027 5.93677 40.1422 5.93677C41.116 5.93677 41.9681 6.13275 42.6985 6.52472C43.4288 6.9167 44.0139 7.41057 44.4537 8.00637V6.14843H47.7756V19.1776H44.4537V17.2726C44.0296 17.8841 43.4445 18.3897 42.6985 18.7895C41.9524 19.1893 41.0925 19.3892 40.1186 19.3892C39.0192 19.3892 38.0179 19.107 37.1147 18.5426C36.2116 17.9781 35.497 17.1824 34.9708 16.1555C34.4446 15.1285 34.1815 13.9487 34.1815 12.616ZM44.454 12.6631C44.454 11.8634 44.2969 11.1775 43.9828 10.6052C43.6687 10.0329 43.2446 9.59393 42.7105 9.28819C42.1765 8.98245 41.6032 8.82958 40.9907 8.82958C40.3781 8.82958 39.8127 8.97853 39.2943 9.27643C38.776 9.57433 38.3559 10.0094 38.0339 10.5817C37.7119 11.154 37.5509 11.8321 37.5509 12.616C37.5509 13.4 37.7119 14.0859 38.0339 14.6739C38.3559 15.2618 38.78 15.7126 39.3061 16.0262C39.8323 16.3398 40.3938 16.4965 40.9907 16.4965C41.6032 16.4965 42.1765 16.3437 42.7105 16.0379C43.2446 15.7322 43.6687 15.2932 43.9828 14.7209C44.2969 14.1486 44.454 13.4627 44.454 12.6631ZM58.2371 5.96105C59.792 5.96105 61.0486 6.45101 62.0067 7.43094C62.9648 8.41088 63.4438 9.77884 63.4438 11.5349V19.1783H60.1454V11.9817C60.1454 10.9469 59.8863 10.1512 59.368 9.59462C58.8496 9.03802 58.1428 8.75973 57.2476 8.75973C56.3366 8.75973 55.618 9.03802 55.0918 9.59462C54.5656 10.1512 54.3026 10.9469 54.3026 11.9817V19.1783H51.0042V6.1492H54.3026V7.77196C54.7424 7.20752 55.3039 6.76459 55.9871 6.44317C56.6703 6.12176 57.4203 5.96105 58.2371 5.96105ZM65.7262 12.663C65.7262 11.3146 66.0011 10.1348 66.5508 9.12349C67.1006 8.1122 67.8624 7.32827 68.8362 6.77166C69.81 6.21506 70.9251 5.93677 72.1817 5.93677C73.7995 5.93677 75.1385 6.34049 76.1987 7.14796C77.2589 7.95542 77.9696 9.08821 78.3308 10.5463H74.7733C74.5848 9.98191 74.2667 9.53898 73.8191 9.21757C73.3715 8.89615 72.8178 8.73544 72.1581 8.73544C71.2157 8.73544 70.4697 9.07645 69.9199 9.75849C69.3702 10.4405 69.0953 11.4087 69.0953 12.663C69.0953 13.9016 69.3702 14.862 69.9199 15.544C70.4697 16.226 71.2157 16.567 72.1581 16.567C73.4932 16.567 74.3649 15.9712 74.7733 14.7796H78.3308C77.9696 16.1907 77.2549 17.3118 76.1869 18.1428C75.1188 18.9737 73.7838 19.3892 72.1817 19.3892C70.9251 19.3892 69.81 19.1109 68.8362 18.5543C67.8624 17.9977 67.1006 17.2138 66.5508 16.2025C66.0011 15.1912 65.7262 14.0114 65.7262 12.663ZM92.8956 12.3808C92.8956 12.8511 92.8642 13.2745 92.8014 13.6508H83.2596C83.3381 14.5915 83.668 15.3284 84.2491 15.8615C84.8303 16.3946 85.5449 16.6611 86.3931 16.6611C87.6182 16.6611 88.4899 16.1359 89.0082 15.0854H92.5658C92.1888 16.3397 91.4663 17.3706 90.3983 18.178C89.3302 18.9855 88.0187 19.3892 86.4638 19.3892C85.2072 19.3892 84.0803 19.1109 83.0829 18.5543C82.0855 17.9977 81.3081 17.2099 80.7505 16.1907C80.1929 15.1716 79.9141 13.9957 79.9141 12.663C79.9141 11.3146 80.189 10.1309 80.7387 9.11173C81.2884 8.0926 82.058 7.30867 83.0476 6.75991C84.0371 6.21114 85.1758 5.93677 86.4638 5.93677C87.7046 5.93677 88.8158 6.2033 89.7975 6.73639C90.7792 7.26947 91.5409 8.02597 92.0828 9.0059C92.6247 9.98584 92.8956 11.1108 92.8956 12.3808ZM89.4798 11.4401C89.464 10.5934 89.1578 9.91529 88.5609 9.40572C87.9641 8.89616 87.2337 8.64138 86.3698 8.64138C85.5531 8.64138 84.8659 8.88832 84.3083 9.38221C83.7507 9.87609 83.4091 10.562 83.2835 11.4401H89.4798Z" fill="#FCFCFC"/>
</svg>
