<svg width="16" height="17" viewBox="0 0 16 17" fill="none" xmlns="http://www.w3.org/2000/svg">
<path d="M8.08324 11.584C7.30145 11.584 6.63495 11.3084 6.08374 10.7572C5.53253 10.206 5.25711 9.53971 5.25749 8.75829C5.25749 7.9765 5.53309 7.31 6.0843 6.75879C6.63551 6.20758 7.30183 5.93216 8.08324 5.93254C8.86504 5.93254 9.53154 6.20814 10.0827 6.75935C10.634 7.31056 10.9094 7.97688 10.909 8.75829C10.909 9.54009 10.6334 10.2066 10.0822 10.7578C9.53097 11.309 8.86466 11.5844 8.08324 11.584ZM2.43173 9.32344C2.2716 9.32344 2.13729 9.26919 2.02878 9.16068C1.92027 9.05217 1.8662 8.91804 1.86658 8.75829C1.86658 8.59817 1.92083 8.46385 2.02934 8.35534C2.13785 8.24683 2.27198 8.19276 2.43173 8.19314H3.56203C3.72216 8.19314 3.85648 8.2474 3.96499 8.35591C4.07349 8.46441 4.12756 8.59854 4.12718 8.75829C4.12718 8.91842 4.07293 9.05274 3.96442 9.16125C3.85591 9.26975 3.72178 9.32382 3.56203 9.32344H2.43173ZM12.6045 9.32344C12.4443 9.32344 12.31 9.26919 12.2015 9.16068C12.093 9.05217 12.0389 8.91804 12.0393 8.75829C12.0393 8.59817 12.0936 8.46385 12.2021 8.35534C12.3106 8.24683 12.4447 8.19276 12.6045 8.19314H13.7348C13.8949 8.19314 14.0292 8.2474 14.1377 8.35591C14.2462 8.46441 14.3003 8.59854 14.2999 8.75829C14.2999 8.91842 14.2457 9.05274 14.1371 9.16125C14.0286 9.26975 13.8945 9.32382 13.7348 9.32344H12.6045ZM8.08324 4.80223C7.92312 4.80223 7.7888 4.74798 7.68029 4.63947C7.57178 4.53096 7.51772 4.39683 7.51809 4.23708V3.10678C7.51809 2.94665 7.57235 2.81234 7.68086 2.70383C7.78937 2.59532 7.92349 2.54125 8.08324 2.54163C8.24337 2.54163 8.37769 2.59588 8.4862 2.70439C8.59471 2.8129 8.64877 2.94703 8.6484 3.10678V4.23708C8.6484 4.39721 8.59414 4.53153 8.48563 4.64003C8.37712 4.74854 8.24299 4.80261 8.08324 4.80223ZM8.08324 14.975C7.92312 14.975 7.7888 14.9207 7.68029 14.8122C7.57178 14.7037 7.51772 14.5696 7.51809 14.4098V13.2795C7.51809 13.1194 7.57235 12.9851 7.68086 12.8766C7.78937 12.768 7.92349 12.714 8.08324 12.7144C8.24337 12.7144 8.37769 12.7686 8.4862 12.8771C8.59471 12.9856 8.64877 13.1198 8.6484 13.2795V14.4098C8.6484 14.5699 8.59414 14.7042 8.48563 14.8128C8.37712 14.9213 8.24299 14.9753 8.08324 14.975ZM4.49453 5.96079L3.887 5.36738C3.77396 5.26377 3.71971 5.1319 3.72423 4.97178C3.72875 4.81165 3.78301 4.67507 3.887 4.56204C4.00003 4.44901 4.1366 4.3925 4.29673 4.3925C4.45686 4.3925 4.58872 4.44901 4.69234 4.56204L5.28574 5.16958C5.38936 5.28261 5.44116 5.41448 5.44116 5.56519C5.44116 5.71589 5.38936 5.84776 5.28574 5.96079C5.18213 6.07382 5.05271 6.12808 4.89749 6.12356C4.74226 6.11904 4.60794 6.06478 4.49453 5.96079ZM11.4742 12.9545L10.8807 12.347C10.7771 12.234 10.7253 12.0997 10.7253 11.944C10.7253 11.7884 10.7771 11.659 10.8807 11.5558C10.9844 11.4428 11.114 11.3887 11.2696 11.3936C11.4252 11.3985 11.5593 11.4526 11.672 11.5558L12.2795 12.1492C12.3925 12.2528 12.4468 12.3847 12.4423 12.5448C12.4377 12.7049 12.3835 12.8415 12.2795 12.9545C12.1665 13.0676 12.0299 13.1241 11.8698 13.1241C11.7096 13.1241 11.5778 13.0676 11.4742 12.9545ZM10.8807 5.96079C10.7677 5.85718 10.7135 5.72776 10.718 5.57253C10.7225 5.41731 10.7768 5.28299 10.8807 5.16958L11.4742 4.56204C11.5778 4.44901 11.7096 4.39476 11.8698 4.39928C12.0299 4.4038 12.1665 4.45806 12.2795 4.56204C12.3925 4.67507 12.449 4.81165 12.449 4.97178C12.449 5.1319 12.3925 5.26377 12.2795 5.36738L11.672 5.96079C11.5589 6.0644 11.4271 6.11621 11.2763 6.11621C11.1256 6.11621 10.9938 6.0644 10.8807 5.96079ZM3.887 12.9545C3.77396 12.8415 3.71745 12.7049 3.71745 12.5448C3.71745 12.3847 3.77396 12.2528 3.887 12.1492L4.49453 11.5558C4.60756 11.4522 4.74169 11.4004 4.89692 11.4004C5.05215 11.4004 5.18176 11.4522 5.28574 11.5558C5.39877 11.6594 5.45303 11.789 5.44851 11.9446C5.44399 12.1002 5.38973 12.2344 5.28574 12.347L4.69234 12.9545C4.58872 13.0676 4.45686 13.1218 4.29673 13.1173C4.1366 13.1128 4.00003 13.0585 3.887 12.9545Z" fill="#9E9E9E"/>
</svg>
