<svg width="20" height="20" viewBox="0 0 20 20" fill="none" xmlns="http://www.w3.org/2000/svg">
<g clip-path="url(#clip0_6_2648)">
<path d="M2.73127 2.21619C1.94558 2.21619 1.3092 2.85256 1.3092 3.63825V6.48237V15.7258C1.3092 16.8954 2.27267 17.8589 3.4423 17.8589H16.2409C17.4105 17.8589 18.374 16.8954 18.374 15.7258V5.77134V3.63825C18.374 2.85256 17.7376 2.21619 16.9519 2.21619H2.73127ZM3.4423 3.63825C3.83479 3.63825 4.15333 3.95679 4.15333 4.34928C4.15333 4.74177 3.83479 5.06031 3.4423 5.06031C3.04981 5.06031 2.73127 4.74177 2.73127 4.34928C2.73127 3.95679 3.04981 3.63825 3.4423 3.63825ZM6.28642 3.63825C6.67891 3.63825 6.99745 3.95679 6.99745 4.34928C6.99745 4.74177 6.67891 5.06031 6.28642 5.06031C5.89393 5.06031 5.57539 4.74177 5.57539 4.34928C5.57539 3.95679 5.89393 3.63825 6.28642 3.63825ZM2.73127 6.48237H16.9519V15.7258C16.9519 16.1275 16.6426 16.4368 16.2409 16.4368H3.4423C3.04054 16.4368 2.73127 16.1275 2.73127 15.7258V6.48237ZM9.13055 7.1934V7.98915C8.14577 8.20815 7.52795 8.87342 7.52795 9.807C7.52795 10.7349 8.07272 11.3125 9.18193 11.5443L9.9749 11.7137C10.7215 11.8744 11.0248 12.0976 11.0248 12.4859C11.0248 12.9459 10.5563 13.2663 9.89435 13.2663C9.17692 13.2663 8.67851 12.9502 8.61949 12.4567H7.38908C7.42747 13.396 8.08462 14.038 9.13055 14.2343V15.0147H10.5526V14.2315C11.6419 14.0246 12.2941 13.3429 12.2941 12.3262C12.2941 11.3819 11.768 10.8532 10.5443 10.5958L9.80964 10.4403C9.09647 10.2888 8.80697 10.0727 8.80697 9.69729C8.80697 9.23299 9.2281 8.93765 9.86519 8.93765C10.4809 8.93765 10.9283 9.25829 10.9873 9.73895H12.1858C12.1545 8.85514 11.5125 8.2011 10.5526 7.98637V7.1934H9.13055Z" fill="#757575"/>
</g>
<defs>
<clipPath id="clip0_6_2648">
<rect width="18.65" height="18.65" fill="white" transform="translate(0.516602 0.712528)"/>
</clipPath>
</defs>
</svg>
