<svg width="20" height="19" viewBox="0 0 20 19" fill="none" xmlns="http://www.w3.org/2000/svg">
<g clip-path="url(#clip0_6_2671)">
<path d="M1.3092 1.54955V5.81573H2.02024V17.1922H17.6629V5.81573H18.374V1.54955H1.3092ZM2.73127 2.97161H16.9519V4.39367H2.73127V2.97161ZM3.4423 5.81573H16.2409V15.7702H3.4423V5.81573ZM7.57517 7.23779C7.18354 7.2739 6.89469 7.62386 6.93079 8.01549C6.9669 8.40711 7.31686 8.69596 7.70848 8.65986H11.9747C12.2302 8.66263 12.4691 8.52932 12.5996 8.30712C12.7274 8.08492 12.7274 7.81273 12.5996 7.59053C12.4691 7.36834 12.2302 7.23502 11.9747 7.23779H7.70848C7.68626 7.23779 7.66405 7.23779 7.64183 7.23779C7.61961 7.23779 7.59739 7.23779 7.57517 7.23779Z" fill="#757575"/>
</g>
<defs>
<clipPath id="clip0_6_2671">
<rect width="18.65" height="18.65" fill="white" transform="translate(0.516602 0.0458832)"/>
</clipPath>
</defs>
</svg>
