<svg width="20" height="19" viewBox="0 0 20 19" fill="none" xmlns="http://www.w3.org/2000/svg">
<path d="M9.84163 11.7855C11.1291 11.7855 12.1729 10.7417 12.1729 9.45421C12.1729 8.16669 11.1291 7.12296 9.84163 7.12296C8.55411 7.12296 7.51038 8.16669 7.51038 9.45421C7.51038 10.7417 8.55411 11.7855 9.84163 11.7855Z" stroke="#757575" stroke-width="1.16562" stroke-miterlimit="10" stroke-linecap="round" stroke-linejoin="round"/>
<path d="M2.0708 10.138V8.77036C2.0708 7.9622 2.73132 7.29391 3.54726 7.29391C4.95378 7.29391 5.52882 6.29924 4.82168 5.07922C4.41759 4.37984 4.65849 3.47066 5.36563 3.06657L6.70999 2.29726C7.32388 1.93203 8.11651 2.14961 8.48174 2.76351L8.56722 2.91116C9.26659 4.13118 10.4167 4.13118 11.1238 2.91116L11.2093 2.76351C11.5745 2.14961 12.3672 1.93203 12.9811 2.29726L14.3254 3.06657C15.0326 3.47066 15.2734 4.37984 14.8694 5.07922C14.1622 6.29924 14.7373 7.29391 16.1438 7.29391C16.9519 7.29391 17.6202 7.95443 17.6202 8.77036V10.138C17.6202 10.9462 16.9597 11.6145 16.1438 11.6145C14.7373 11.6145 14.1622 12.6092 14.8694 13.8292C15.2734 14.5363 15.0326 15.4377 14.3254 15.8418L12.9811 16.6111C12.3672 16.9764 11.5745 16.7588 11.2093 16.1449L11.1238 15.9972C10.4244 14.7772 9.27436 14.7772 8.56722 15.9972L8.48174 16.1449C8.11651 16.7588 7.32388 16.9764 6.70999 16.6111L5.36563 15.8418C4.65849 15.4377 4.41759 14.5286 4.82168 13.8292C5.52882 12.6092 4.95378 11.6145 3.54726 11.6145C2.73132 11.6145 2.0708 10.9462 2.0708 10.138Z" stroke="#757575" stroke-width="1.16562" stroke-miterlimit="10" stroke-linecap="round" stroke-linejoin="round"/>
</svg>
